# xmcd CD database file
#
# Track frame offsets:
#	150
#	13714
#	22542
#	37669
#	50721
#	63355
#	77283
#	90989
#	108271
#	120983
#	132437
#	145771
#	155577
#	172621
#	187960
#
# Disc length: 2631 seconds
#
# Revision: 1
# Processed by: cddbd v1.5.2PL0 Copyright (c) Steve Scherf et al.
# Submitted via: CDex 1.79
#
DISCID=a00a450f
DTITLE=Brennen Leigh - Devil`s On My Trail
DYEAR=2006
DGENRE=Country
TTITLE0=Desperately Alone
TTITLE1=Waitin' Out The Rain
TTITLE2=Still Think About You
TTITLE3=You'd Be Wrong
TTITLE4=Like A Freight Train
TTITLE5=Memories Of Yesterday
TTITLE6=Don't Let Go That Rail, John
TTITLE7=Weather Blows In
TTITLE8=Stumblin' On (featuring James Hand)
TTITLE9=Give It Up To Jesus
TTITLE10=Pieces On The Ground
TTITLE11=Carolina
TTITLE12=Mountainside
TTITLE13=Carry Me 
TTITLE14=That's Why I Sing (featuring The Weary Boys)
EXTD=YEAR: 2006
EXTT0=
EXTT1=
EXTT2=
EXTT3=
EXTT4=
EXTT5=
EXTT6=
EXTT7=
EXTT8=
EXTT9=
EXTT10=
EXTT11=
EXTT12=
EXTT13=
EXTT14=
PLAYORDER=
